<svg xmlns="http://www.w3.org/2000/svg" viewBox="0 0 500 400" width="100%" height="100%">
  <rect width="100%" height="100%" fill="#ffffff"/>
  <!-- Door frame -->
  <rect x="80" y="30" width="25" height="340" fill="#cbd5e1" stroke="#94a3b8" stroke-width="2"/>
  <rect x="395" y="30" width="25" height="340" fill="#cbd5e1" stroke="#94a3b8" stroke-width="2"/>
  <rect x="80" y="30" width="340" height="20" fill="#cbd5e1" stroke="#94a3b8" stroke-width="2"/>
  
  <!-- Human figure in doorway -->
  <!-- Legs in lunge step -->
  <line x1="250" y1="240" x2="220" y2="360" stroke="#334155" stroke-width="16" stroke-linecap="round"/>
  <line x1="250" y1="240" x2="285" y2="355" stroke="#1e293b" stroke-width="16" stroke-linecap="round"/>
  <!-- Feet -->
  <path d="M 200 360 L 235 360" stroke="#0f172a" stroke-width="14" stroke-linecap="round"/>
  <path d="M 270 355 L 305 355" stroke="#0f172a" stroke-width="14" stroke-linecap="round"/>
  
  <!-- Torso stepping forward -->
  <line x1="250" y1="130" x2="250" y2="245" stroke="#475569" stroke-width="32" stroke-linecap="round"/>
  
  <!-- Arms on door frame (90 degrees) -->
  <!-- Left arm -->
  <path d="M 250 145 L 170 145 L 105 110" fill="none" stroke="#e2a07f" stroke-width="14" stroke-linecap="round" stroke-linejoin="round"/>
  <!-- Right arm -->
  <path d="M 250 145 L 330 145 L 395 110" fill="none" stroke="#e2a07f" stroke-width="14" stroke-linecap="round" stroke-linejoin="round"/>
  
  <!-- Hands on frame -->
  <circle cx="105" cy="110" r="10" fill="#d97706"/>
  <circle cx="395" cy="110" r="10" fill="#d97706"/>
  
  <!-- Head -->
  <circle cx="250" cy="85" r="28" fill="#fcd34d" stroke="#d97706" stroke-width="3"/>
  
  <!-- Motion arrows showing chest expansion forward -->
  <defs>
    <marker id="arrow" viewBox="0 0 10 10" refX="5" refY="5" markerWidth="6" markerHeight="6" orient="auto-start-reverse">
      <path d="M 0 1 L 10 5 L 0 9 z" fill="#ef4444" />
    </marker>
  </defs>
  <path d="M 250 185 L 250 215" stroke="#ef4444" stroke-width="5" marker-end="url(#arrow)"/>
  <path d="M 210 160 Q 180 180 150 165" fill="none" stroke="#ef4444" stroke-width="4" marker-end="url(#arrow)"/>
  <path d="M 290 160 Q 320 180 350 165" fill="none" stroke="#ef4444" stroke-width="4" marker-end="url(#arrow)"/>
  
  <!-- Label badge -->
  <rect x="130" y="360" width="240" height="28" rx="6" fill="#0f172a"/>
  <text x="250" y="379" font-family="sans-serif" font-size="13" font-weight="bold" fill="#d4af37" text-anchor="middle">Doorway Pectoral Stretch</text>
</svg>
